<?xml version="1.0" encoding="utf-8"?>
<!DOCTYPE svg PUBLIC "-//W3C//DTD SVG 1.1//EN" "http://www.w3.org/Graphics/SVG/1.1/DTD/svg11.dtd">
<!-- Generated by geo2svg 2.4.1. https://d3js.org/d3-geo-projection/ -->
<svg version="1.1" xmlns="http://www.w3.org/2000/svg" xmlns:xlink="http://www.w3.org/1999/xlink" width="960" height="500" viewBox="0 0 960 500" fill="none" stroke="black">
  <path d="M-72.536649,42.063738L-72.589394,42.072193L-72.607978,42.031091L-72.531565,42.034585ZM-72.895654,42.123925L-72.981914,42.136697L-72.97905,42.038243L-72.834961,42.03709L-72.837217,42.10222L-72.853903,42.115009ZM-71.804567,42.023559L-71.830062,42.092793L-71.881517,42.075901L-71.883952,42.0244ZM-71.992842,42.072572L-72.042006,42.11168L-72.099763,42.028783L-71.993129,42.026938ZM-70.914646,42.886655L-70.903008,42.837692L-70.914646,42.886655ZM-70.903975,42.834758L-70.904082,42.834429L-70.903975,42.834758ZM-70.3833,41.740096L-70.458746,41.664055L-70.449328,41.620943L-70.273693,41.649404L-70.262342,41.707366ZM-70.27398,41.648564L-70.274302,41.647624L-70.27398,41.648564ZM-71.308455,42.270733L-71.332446,42.247726L-71.338498,42.215243L-71.269569,42.200509L-71.251414,42.202619L-71.232293,42.258438L-71.299754,42.269628L-71.295636,42.272496L-71.294813,42.273073ZM-72.48369,42.407487L-72.489885,42.433823L-72.530956,42.428862L-72.544205,42.427165L-72.535145,42.304254L-72.527984,42.301468L-72.464211,42.308061L-72.472303,42.351487ZM-71.317551,42.502431L-71.38494,42.504474L-71.43038,42.436954L-71.366356,42.412728L-71.289692,42.46619ZM-72.97905,42.541621L-73.085434,42.559502L-73.107885,42.536479L-73.115154,42.487796L-73.06796,42.480116L-72.988145,42.466948L-72.9793,42.497866ZM-71.087166,41.990846L-71.100844,41.993186L-71.193908,41.910767L-71.186782,41.879356L-71.11531,41.855393L-71.063533,41.903483ZM-70.993135,41.906449L-71.013044,41.892276L-71.094184,41.872599L-71.007458,41.838501L-70.987263,41.905823ZM-70.77027,41.825794L-70.771738,41.808935L-70.778792,41.761323L-70.774925,41.734278L-70.62969,41.760334L-70.632555,41.762921L-70.717526,41.801519ZM-70.746816,41.738201L-70.746458,41.738003L-70.746816,41.738201ZM-72.030368,42.245204L-72.041182,42.308703L-72.134783,42.281165L-72.111257,42.238596L-72.072836,42.232102ZM-71.909232,42.091277L-71.916966,42.190868L-71.939346,42.189253L-72.019877,42.183765L-72.029437,42.174437L-72.042006,42.11168L-71.992842,42.072572ZM-71.049496,42.206673L-71.082726,42.2043L-71.102957,42.200707L-71.066612,42.164071L-71.056515,42.15382L-71.035102,42.135643L-71.021996,42.169015ZM-73.297091,42.15921L-73.389009,42.160165L-73.428755,42.121272L-73.436776,42.050521L-73.296339,42.047011ZM-70.933015,42.815213L-70.917403,42.787476L-70.833184,42.799705ZM-70.814063,42.808868L-70.808154,42.811719L-70.814063,42.808868ZM-70.832217,42.800166L-70.830069,42.801188L-70.832217,42.800166ZM-70.821761,42.80516L-70.816712,42.807582L-70.816354,42.807747L-70.815817,42.808011ZM-70.823838,42.804154L-70.82724,42.802556L-70.823838,42.804154ZM-70.821976,42.805061L-70.823265,42.804434L-70.821976,42.805061ZM-70.828314,42.802028L-70.828994,42.801715L-70.828314,42.802028ZM-71.43038,42.436954L-71.464325,42.450336L-71.469446,42.402609ZM-71.275155,42.656226L-71.296317,42.612668L-71.211131,42.573329L-71.164868,42.598034L-71.256177,42.657149ZM-71.775312,42.63668L-71.858493,42.633829L-71.858672,42.629033L-71.837796,42.543797L-71.762959,42.563936ZM-71.571604,42.142383L-71.592766,42.121651L-71.592623,42.114284L-71.591943,42.063705L-71.563905,42.064068L-71.49827,42.064892L-71.499703,42.103489ZM-71.67899,42.530447L-71.702229,42.533908L-71.728405,42.475139L-71.718379,42.410223L-71.656754,42.430972L-71.635807,42.476903L-71.635878,42.524037ZM-71.186782,41.879356L-71.193478,41.816532L-71.153159,41.789554L-71.130851,41.790213L-71.11531,41.855393ZM-71.033168,42.414211L-71.050212,42.393841L-71.018022,42.403334ZM-72.15437,42.623842L-72.224946,42.638938L-72.271352,42.547241L-72.244855,42.513456L-72.185629,42.550356ZM-73.174272,42.598512L-73.201843,42.579197L-73.165821,42.510935L-73.107885,42.536479L-73.085434,42.559502L-73.084288,42.59477ZM-70.794118,42.656012L-70.816927,42.641311L-70.800814,42.595347L-70.745635,42.599583L-70.739118,42.643141L-70.738939,42.64347L-70.738473,42.644162ZM-70.748392,42.668059L-70.749144,42.668718L-70.749287,42.668833ZM-70.737256,42.646173L-70.73543,42.649106L-70.737256,42.646173ZM-70.733031,42.653045L-70.732458,42.653968L-70.733389,42.654809L-70.73346,42.654858L-70.735286,42.65649ZM-70.738437,42.644261L-70.738187,42.644673L-70.738437,42.644261ZM-70.785345,42.668702L-70.785739,42.668273L-70.785345,42.668702ZM-70.737327,42.646058L-70.737399,42.645942L-70.737327,42.646058ZM-72.288576,42.35208L-72.31425,42.343691L-72.356001,42.303298L-72.335985,42.220171L-72.221222,42.245254L-72.211088,42.251253L-72.210802,42.294481L-72.213989,42.294267ZM-73.41411,42.212738L-73.460158,42.21755L-73.483111,42.154892L-73.428755,42.121272L-73.389009,42.160165ZM-72.556773,42.506485L-72.57815,42.578504L-72.636838,42.577993L-72.675439,42.553026L-72.656246,42.470047L-72.585455,42.466849ZM-72.675439,42.553026L-72.719339,42.585492L-72.745442,42.564282L-72.763776,42.463669L-72.75776,42.445886L-72.700862,42.452924L-72.656246,42.470047ZM-73.107885,42.536479L-73.165821,42.510935L-73.182185,42.485423L-73.201879,42.413766L-73.169187,42.412761L-73.115154,42.487796ZM-71.102957,42.200707L-71.130743,42.227916L-71.145926,42.209228L-71.154842,42.19695L-71.178546,42.165868L-71.149148,42.138625L-71.066612,42.164071ZM-71.486812,42.330194L-71.585211,42.310961L-71.580019,42.305902L-71.55012,42.266036L-71.52219,42.266464L-71.497053,42.289833ZM-71.478111,42.156787L-71.502639,42.191429L-71.555741,42.182513L-71.560969,42.15832L-71.501422,42.116674L-71.478541,42.131391ZM-70.539671,41.637291L-70.505188,41.580104L-70.449328,41.620943L-70.458746,41.664055ZM-70.51414,41.568518L-70.515214,41.568848L-70.51414,41.568518ZM-71.678776,42.389177L-71.72597,42.390298L-71.741904,42.386854L-71.764427,42.312873L-71.687871,42.325513L-71.676377,42.364885ZM-71.288296,42.014462L-71.289084,42.04505L-71.381324,42.018945L-71.381359,41.985094ZM-70.942969,41.744678L-70.965385,41.734015L-70.931117,41.6085L-70.91905,41.681854ZM-71.03546,42.570264L-71.070981,42.555893L-71.075134,42.531041L-71.035854,42.505199L-71.011612,42.501656L-70.986941,42.511792L-71.034851,42.565501ZM-70.885785,42.497816L-70.886143,42.496152L-70.890834,42.492889L-70.899034,42.484681L-70.879483,42.478748ZM-71.034851,42.565501L-70.986941,42.511792L-70.949952,42.494767L-70.9135,42.541489L-70.923025,42.543599L-70.93946,42.546598L-71.002803,42.563375ZM-72.694846,42.105895L-72.705983,42.080812L-72.714576,42.036925L-72.607978,42.031091L-72.589394,42.072193L-72.588534,42.093238ZM-70.934125,42.490845L-70.921413,42.465745L-70.879483,42.478748L-70.899034,42.484681ZM-71.396721,42.341054L-71.377671,42.314686L-71.328758,42.331661L-71.334559,42.396116L-71.366356,42.412728L-71.390025,42.365248L-71.389953,42.365347L-71.389953,42.365347L-71.390025,42.365248ZM-70.865017,41.700164L-70.907198,41.763548L-70.942969,41.744678L-70.91905,41.681854L-70.914932,41.664303L-70.858213,41.681162ZM-70.778792,41.761323L-70.799059,41.710118L-70.766081,41.67696L-70.765293,41.677042L-70.763037,41.677339L-70.774925,41.734278ZM-70.746458,41.738003L-70.746816,41.738201L-70.746458,41.738003ZM-71.170024,42.515549L-71.205008,42.544505L-71.231899,42.50637L-71.240923,42.490021L-71.204292,42.465844ZM-72.864287,42.737738L-72.927201,42.739122L-72.949652,42.705123L-72.95556,42.654512L-72.857663,42.673975ZM-72.953268,42.34384L-73.009092,42.387743L-73.068497,42.380723L-73.064307,42.339736L-73.000284,42.312626ZM-71.537122,42.66351L-71.657936,42.649947L-71.660478,42.635098L-71.609202,42.581224L-71.511448,42.569391L-71.49802,42.576873L-71.493544,42.617415L-71.49648,42.649815ZM-70.154275,42.077104L-70.147436,42.061019L-70.077612,41.957819L-69.997117,41.966768ZM-72.116629,42.626611L-72.046088,42.601857L-71.986075,42.630022L-71.98142,42.713232L-72.111078,42.717236ZM-69.997117,41.966768L-70.077612,41.957819L-70.004565,41.879833L-69.95669,41.879998ZM-70.007071,41.880756L-70.00435,41.881053L-70.007071,41.880756ZM-71.898776,42.71132L-71.98142,42.713232L-71.986075,42.630022L-71.928031,42.602022L-71.858672,42.629033L-71.858493,42.633829ZM-71.559107,42.411953L-71.60426,42.397714L-71.603079,42.367275L-71.475497,42.38064L-71.472668,42.390034ZM-70.914646,42.886655L-71.004916,42.863352L-70.96918,42.822464L-70.940284,42.822563L-70.904082,42.834429L-70.903975,42.834758L-70.903008,42.837692ZM-73.262,42.631341L-73.306974,42.632659L-73.383673,42.4255L-73.338914,42.418578L-73.311736,42.504623L-73.258276,42.588574ZM-71.580019,42.305902L-71.67011,42.278775L-71.674443,42.252373L-71.644436,42.226631L-71.599319,42.225972L-71.55012,42.266036ZM-70.933946,42.456236L-70.939747,42.455214L-70.933946,42.456236ZM-70.918943,42.622771L-70.931117,42.612438L-70.922344,42.591524L-70.810088,42.584223L-70.814528,42.593419ZM-71.069584,42.049714L-71.054724,41.985061L-71.054187,41.982721L-70.9796,42.011001L-70.987156,42.046582ZM-71.332554,42.560771L-71.388378,42.54996L-71.399514,42.534024L-71.38494,42.504474L-71.317551,42.502431L-71.306701,42.520609ZM-71.035854,42.505199L-71.053364,42.47593L-71.025828,42.444716L-71.010108,42.438223L-70.989161,42.459746L-71.011612,42.501656ZM-71.240923,42.490021L-71.272684,42.459713L-71.267241,42.424445L-71.211274,42.406086L-71.202645,42.414837L-71.18227,42.436295L-71.189647,42.449842L-71.204292,42.465844ZM-73.201843,42.579197L-73.258276,42.588574L-73.311736,42.504623L-73.182185,42.485423L-73.165821,42.510935ZM-72.876855,42.541209L-72.975397,42.556042L-72.97905,42.541621L-72.9793,42.497866L-72.871126,42.484055ZM-72.042006,42.11168L-72.029437,42.174437L-72.072442,42.169296L-72.134998,42.161797L-72.135105,42.090667L-72.135714,42.030234L-72.099763,42.028783ZM-71.202645,42.414837L-71.211274,42.406086L-71.194158,42.386046L-71.154376,42.375103L-71.152228,42.400829ZM-72.988145,42.466948L-73.06796,42.480116L-73.091449,42.384793L-73.068497,42.380723L-73.009092,42.387743L-72.992657,42.4491ZM-71.390383,42.271919L-71.419315,42.257284L-71.420067,42.238134L-71.384761,42.192022L-71.34412,42.200707L-71.338498,42.215243L-71.332446,42.247726ZM-70.908523,41.966389L-70.99976,41.92967L-70.993135,41.906449L-70.987263,41.905823L-70.896384,41.794333L-70.771738,41.808935L-70.77027,41.825794L-70.829818,41.927709L-70.860899,41.955001ZM-71.116098,41.765459L-71.138334,41.603688L-71.076674,41.687474L-71.011899,41.711783ZM-72.283026,42.721604L-72.41204,42.725378L-72.377127,42.639284L-72.364774,42.609438L-72.271961,42.674668ZM-73.221931,42.400598L-73.295337,42.411871L-73.330786,42.351997L-73.288283,42.323552L-73.236398,42.364556ZM-72.84846,42.559074L-72.833421,42.611185L-72.954593,42.628671L-72.975397,42.556042L-72.876855,42.541209ZM-73.064307,42.339736L-73.159949,42.304221L-73.16088,42.286603L-73.16156,42.24761L-73.007875,42.238414L-73.001859,42.251022L-73.000284,42.312626ZM-73.289178,42.257499L-73.365913,42.259147L-73.402437,42.258553L-73.41411,42.212738L-73.389009,42.160165L-73.297091,42.15921L-73.289142,42.172295L-73.256772,42.241678L-73.243989,42.25707ZM-70.61526,41.658238L-70.515214,41.568848L-70.51414,41.568518L-70.505188,41.580104L-70.539671,41.637291L-70.567887,41.645548ZM-70.618232,41.657793L-70.618375,41.657776L-70.618447,41.65776L-70.621025,41.65743ZM-71.979701,42.532326L-72.001364,42.546615L-72.082039,42.495624L-72.099692,42.484533L-72.00738,42.421034L-71.96545,42.446612L-71.919831,42.491455ZM-70.858213,41.681162L-70.914932,41.664303L-70.843174,41.628474ZM-70.52037,41.772546L-70.567887,41.645548L-70.539671,41.637291L-70.458746,41.664055L-70.3833,41.740096ZM-70.519404,41.792767L-70.520263,41.774441L-70.519404,41.792767ZM-70.776966,42.116641L-70.749717,42.096979L-70.678997,42.059124L-70.678603,42.059305L-70.672086,42.062156L-70.671871,42.062239L-70.669651,42.063211L-70.667933,42.063969L-70.665104,42.065189L-70.665032,42.065238L-70.657441,42.068567L-70.657083,42.068716L-70.656761,42.068864L-70.656689,42.06888L-70.648525,42.072341L-70.680036,42.126348L-70.682936,42.12526ZM-71.134646,42.404273L-71.152228,42.400829L-71.154376,42.375103L-71.14367,42.365083L-71.072735,42.37334ZM-72.763776,42.463669L-72.855622,42.480924L-72.847887,42.436493L-72.773551,42.401538L-72.75776,42.445886ZM-71.624706,42.350481L-71.676377,42.364885L-71.687871,42.325513L-71.67011,42.278775L-71.580019,42.305902L-71.585211,42.310961ZM-71.269963,42.328084L-71.327362,42.31373L-71.308455,42.270733L-71.294813,42.273073L-71.227531,42.315411ZM-71.295636,42.272496L-71.299754,42.269628L-71.295636,42.272496ZM-71.227531,42.315411L-71.294813,42.273073L-71.295636,42.272496L-71.299754,42.269628L-71.232293,42.258438L-71.23172,42.259262L-71.188214,42.280456L-71.191258,42.282994ZM-72.100945,42.483692L-72.185629,42.550356L-72.244855,42.513456L-72.31425,42.343691L-72.288576,42.35208L-72.205144,42.417688ZM-71.136473,42.552383L-71.13547,42.530002L-71.11975,42.500305L-71.100737,42.502249L-71.075134,42.531041L-71.070981,42.555893ZM-71.009249,42.305506L-71.010251,42.305226L-71.042765,42.276748L-71.082726,42.2043L-71.049496,42.206673L-70.974945,42.237541ZM-70.963487,42.245979L-70.961625,42.245798L-70.963487,42.245979ZM-71.269569,42.200509L-71.338498,42.215243L-71.34412,42.200707L-71.33968,42.149387L-71.303729,42.149503ZM-71.768258,42.311274L-71.80206,42.331347L-71.875394,42.286554L-71.884059,42.281263L-71.856631,42.22668L-71.797155,42.210052L-71.733418,42.237986L-71.731233,42.241298ZM-72.41204,42.725378L-72.516776,42.728608L-72.496187,42.678623L-72.490995,42.604016L-72.377127,42.639284ZM-70.758704,41.947519L-70.799346,42.013605L-70.807259,42.01288L-70.860899,41.955001L-70.829818,41.927709ZM-71.094184,41.872599L-71.092967,41.808737L-71.03657,41.816532L-71.007458,41.838501ZM-70.769482,42.022076L-70.799346,42.013605L-70.758704,41.947519L-70.753512,41.933246L-70.692819,41.983743L-70.711331,42.002415ZM-72.552691,42.612207L-72.57815,42.578504L-72.556773,42.506485L-72.52093,42.510226L-72.459628,42.516439L-72.466109,42.576741L-72.497082,42.597572ZM-71.369722,42.698416L-71.457701,42.700476L-71.49648,42.649815L-71.493544,42.617415L-71.417632,42.653787L-71.38093,42.649024L-71.368898,42.661763ZM-71.028227,42.424215L-71.025828,42.444716L-71.082117,42.443942L-71.085626,42.4447L-71.076173,42.41314L-71.072735,42.414903ZM-71.078142,42.474035L-71.100737,42.502249L-71.11975,42.500305L-71.112052,42.473821L-71.119392,42.453451L-71.085626,42.4447L-71.082117,42.443942ZM-72.633974,42.351157L-72.672145,42.371362L-72.741217,42.362743L-72.736741,42.284246L-72.614709,42.290212ZM-70.974945,42.237541L-71.049496,42.206673L-71.021996,42.169015L-70.976485,42.16834L-70.96807,42.221703ZM-71.269569,42.200509L-71.303729,42.149503L-71.280275,42.088509L-71.23881,42.106406L-71.194445,42.149931L-71.238345,42.182793L-71.251414,42.202619ZM-71.483303,42.353135L-71.475497,42.38064L-71.603079,42.367275L-71.624706,42.350481L-71.585211,42.310961L-71.486812,42.330194ZM-72.355392,42.340692L-72.472303,42.351487L-72.464211,42.308061L-72.447131,42.227257L-72.395497,42.185743L-72.335985,42.220171L-72.356001,42.303298ZM-71.03657,41.816532L-71.092967,41.808737L-71.116098,41.765459L-71.011899,41.711783L-70.965385,41.734015L-70.942969,41.744678L-70.907198,41.763548L-70.921771,41.791251ZM-73.023021,42.74115L-73.048445,42.74166L-73.059473,42.708403L-73.063269,42.65471L-73.063627,42.649799L-72.951048,42.641015L-72.95556,42.654512L-72.949652,42.705123ZM-72.88083,42.433015L-72.992657,42.4491L-73.009092,42.387743L-72.953268,42.34384L-72.885199,42.3326L-72.885628,42.340049ZM-70.752689,42.164203L-70.838877,42.194807L-70.890297,42.171751L-70.884317,42.153722L-70.803858,42.111482L-70.777145,42.116756ZM-70.129282,41.752852L-70.133865,41.706163L-69.991781,41.728939L-69.991746,41.729054L-70.018816,41.78545ZM-70.572578,41.414608L-70.615117,41.413635L-70.60706,41.349312ZM-70.548551,41.416569L-70.54916,41.416272L-70.548551,41.416569ZM-71.656754,42.430972L-71.718379,42.410223L-71.72597,42.390298L-71.678776,42.389177L-71.660621,42.418249ZM-71.498557,42.463784L-71.543388,42.466454L-71.548902,42.44732L-71.559107,42.411953L-71.472668,42.390034L-71.469446,42.402609L-71.464325,42.450336ZM-71.259292,41.974217L-71.268745,41.987319L-71.381431,41.914821L-71.338784,41.898605L-71.300721,41.903664L-71.208159,41.908855ZM-69.991781,41.728939L-70.133865,41.706163L-70.117537,41.655238L-70.037472,41.667796L-70.037543,41.66806L-70.037973,41.668884L-69.993142,41.713628ZM-70.037579,41.66839L-70.037579,41.668225L-70.037579,41.66839ZM-71.056515,42.15382L-71.066612,42.164071L-71.149148,42.138625L-71.138657,42.07277L-71.08047,42.095546L-71.061313,42.103176ZM-71.130851,41.790213L-71.153159,41.789554L-71.186925,41.74443ZM-71.190506,41.744562L-71.187104,41.744447L-71.190506,41.744562ZM-70.917403,42.787476L-70.967175,42.758289L-70.959691,42.753839L-70.924135,42.736008L-70.899069,42.742089L-70.833184,42.799705ZM-70.808154,42.811719L-70.814063,42.808868L-70.816712,42.807582L-70.821761,42.80516L-70.808656,42.75028L-70.79487,42.753213ZM-70.872357,42.750164L-70.854346,42.750659L-70.872357,42.750164ZM-70.823838,42.804154L-70.82724,42.802556L-70.823838,42.804154ZM-70.821976,42.805061L-70.823265,42.804434L-70.821976,42.805061ZM-70.828314,42.802028L-70.828994,42.801715L-70.828314,42.802028ZM-70.830069,42.801188L-70.832217,42.800166L-70.830069,42.801188ZM-70.809551,42.750082L-70.81016,42.75L-70.809551,42.750082ZM-70.810589,42.749967L-70.810912,42.749934L-70.810589,42.749967ZM-70.815817,42.808011L-70.816354,42.807747L-70.815817,42.808011ZM-70.884317,42.153722L-70.887539,42.087965L-70.843353,42.094771L-70.803858,42.111482ZM-71.592623,42.114284L-71.679957,42.103407L-71.696679,42.095331L-71.680852,42.011545L-71.591119,42.013654L-71.591943,42.063705ZM-72.535145,42.304254L-72.544205,42.427165L-72.581086,42.422583L-72.633974,42.351157L-72.614709,42.290212L-72.613134,42.286274L-72.609947,42.285235ZM-73.165893,42.711847L-73.16976,42.660181L-73.063269,42.65471L-73.059473,42.708403ZM-71.194445,42.149931L-71.23881,42.106406L-71.178475,42.057377L-71.168699,42.061168L-71.138657,42.07277L-71.149148,42.138625L-71.178546,42.165868ZM-71.158709,42.012616L-71.168699,42.061168L-71.178475,42.057377L-71.288296,42.014462L-71.268745,41.987319L-71.259292,41.974217ZM-72.496187,42.678623L-72.516776,42.728608L-72.598632,42.730882L-72.585741,42.650919L-72.540803,42.655666ZM-71.255138,42.736486L-71.369722,42.698416L-71.368898,42.661763L-71.275155,42.656226L-71.256177,42.657149L-71.238166,42.669427ZM-72.368462,42.502497L-72.4409,42.510391L-72.489885,42.433823L-72.48369,42.407487L-72.375015,42.420836ZM-70.782015,42.236371L-70.786455,42.234113L-70.788353,42.223285L-70.826989,42.200806L-70.838877,42.194807L-70.752689,42.164203ZM-70.682936,42.12526L-70.680036,42.126348L-70.682936,42.12526ZM-71.303729,42.149503L-71.33968,42.149387L-71.37563,42.135461L-71.380178,42.13294L-71.359266,42.08953L-71.285073,42.082394L-71.280275,42.088509ZM-70.9024,42.085905L-70.915899,42.100127L-70.976521,42.087207L-70.975232,42.071188L-70.908093,42.061678ZM-73.048445,42.74166L-73.163637,42.743951L-73.165893,42.711847L-73.059473,42.708403ZM-71.875394,42.286554L-71.918757,42.347993L-71.993773,42.319366L-71.989405,42.310203L-71.960544,42.281428L-71.884059,42.281263ZM-72.781035,42.199751L-72.812868,42.155864L-72.853903,42.115009L-72.837217,42.10222L-72.705983,42.080812L-72.694846,42.105895L-72.684892,42.162951L-72.686861,42.183403ZM-71.60426,42.397714L-71.660621,42.418249L-71.678776,42.389177L-71.676377,42.364885L-71.624706,42.350481L-71.603079,42.367275ZM-70.911244,42.541077L-70.9135,42.541489L-70.949952,42.494767L-70.934125,42.490845L-70.899034,42.484681L-70.890834,42.492889ZM-70.885785,42.497816L-70.886143,42.496152L-70.885785,42.497816ZM-71.079396,42.269513L-71.082475,42.268689L-71.113162,42.258834L-71.130743,42.227916L-71.102957,42.200707L-71.082726,42.2043L-71.042765,42.276748ZM-73.063269,42.65471L-73.16976,42.660181L-73.17155,42.62872L-73.174272,42.598512L-73.084288,42.59477L-73.063627,42.649799ZM-71.23172,42.259262L-71.232293,42.258438L-71.251414,42.202619L-71.238345,42.182793L-71.154842,42.19695L-71.145926,42.209228ZM-71.33968,42.149387L-71.34412,42.200707L-71.384761,42.192022L-71.402307,42.178805L-71.37563,42.135461ZM-72.141873,42.161006L-72.26394,42.183831L-72.274468,42.143751L-72.270099,42.09253L-72.192683,42.091557L-72.135105,42.090667L-72.134998,42.161797ZM-72.135105,42.090667L-72.192683,42.091557L-72.198842,42.031025L-72.135714,42.030234ZM-73.340955,42.351882L-73.410851,42.35175L-73.431297,42.296145L-73.402437,42.258553L-73.365913,42.259147ZM-70.931117,42.612438L-70.964812,42.599583L-71.002803,42.563375L-70.93946,42.546598L-70.911495,42.549614L-70.922344,42.591524ZM-70.923025,42.543599L-70.9135,42.541489L-70.911244,42.541077ZM-73.16156,42.24761L-73.162097,42.196999L-73.161954,42.178673L-73.070502,42.140175L-73.034909,42.143668L-73.007875,42.238414ZM-72.674723,42.732959L-72.791097,42.736057L-72.772656,42.658335L-72.73513,42.633104L-72.633043,42.645365L-72.620904,42.646882ZM-70.896885,42.019192L-70.899177,41.996334L-70.908523,41.966389L-70.860899,41.955001L-70.807259,42.01288L-70.83347,42.019554ZM-71.217075,42.366583L-71.260366,42.353662L-71.269963,42.328084L-71.227531,42.315411L-71.191258,42.282994L-71.164689,42.303842L-71.157026,42.330392L-71.167518,42.360089ZM-70.864408,42.709112L-70.948591,42.680683L-70.965349,42.671882L-70.903617,42.659621ZM-70.859825,42.65733L-70.816927,42.641311L-70.794118,42.656012L-70.728017,42.661253L-70.726478,42.663758ZM-70.788353,42.738776L-70.798272,42.733618L-70.788353,42.738776ZM-70.735286,42.65649L-70.73346,42.654858L-70.735286,42.65649ZM-70.749144,42.668718L-70.748392,42.668059L-70.749144,42.668718ZM-70.733389,42.654809L-70.732458,42.653968L-70.732243,42.654314ZM-70.841205,42.730075L-70.8421,42.729333L-70.841205,42.730075ZM-70.785345,42.668702L-70.785739,42.668273L-70.785345,42.668702ZM-70.749144,42.668718L-70.749287,42.668833L-70.749144,42.668718ZM-70.825628,42.264635L-70.827061,42.264355L-70.844678,42.260333L-70.826989,42.200806L-70.788353,42.223285ZM-70.786455,42.234113L-70.782015,42.236371L-70.786455,42.234113ZM-71.797155,42.210052L-71.856631,42.22668L-71.895124,42.192434L-71.831494,42.164269ZM-73.063627,42.649799L-73.084288,42.59477L-73.085434,42.559502L-72.97905,42.541621L-72.975397,42.556042L-72.954593,42.628671L-72.951048,42.641015ZM-71.18227,42.436295L-71.202645,42.414837L-71.152228,42.400829L-71.134646,42.404273L-71.132426,42.415233L-71.1499,42.43585ZM-72.123683,42.363946L-72.205144,42.417688L-72.288576,42.35208L-72.213989,42.294267ZM-73.428755,42.121272L-73.483111,42.154892L-73.436776,42.050521ZM-71.772555,42.708139L-71.898776,42.71132L-71.858493,42.633829L-71.775312,42.63668L-71.775742,42.644228ZM-70.827061,42.264355L-70.825628,42.264635L-70.827061,42.264355ZM-71.188859,42.696273L-71.134539,42.676827L-71.134181,42.721505ZM-72.395497,42.185743L-72.447131,42.227257L-72.524296,42.218737L-72.515988,42.160825L-72.48455,42.156523L-72.395246,42.18482ZM-72.224946,42.638938L-72.271961,42.674668L-72.364774,42.609438L-72.362303,42.595232L-72.356789,42.548708L-72.271352,42.547241ZM-70.965385,41.734015L-71.011899,41.711783L-71.076674,41.687474L-71.022211,41.50441L-70.931117,41.6085ZM-72.871126,42.484055L-72.9793,42.497866L-72.988145,42.466948L-72.992657,42.4491L-72.88083,42.433015L-72.847887,42.436493L-72.855622,42.480924ZM-71.028227,42.424215L-71.072735,42.414903L-71.071983,42.407454L-71.071625,42.406366L-71.069047,42.393891L-71.071088,42.389853L-71.050212,42.393841L-71.033168,42.414211ZM-71.073559,42.409399L-71.07338,42.408426L-71.073559,42.409399ZM-72.464211,42.308061L-72.527984,42.301468L-72.546317,42.216479L-72.524296,42.218737L-72.447131,42.227257ZM-73.288283,42.323552L-73.289178,42.257499L-73.243989,42.25707L-73.16088,42.286603L-73.159949,42.304221L-73.236398,42.364556ZM-71.728405,42.475139L-71.830026,42.492196L-71.831745,42.431829L-71.81778,42.40396L-71.741904,42.386854L-71.72597,42.390298L-71.718379,42.410223ZM-72.389015,42.152354L-72.395246,42.18482L-72.48455,42.156523L-72.471086,42.089728L-72.46994,42.084767L-72.379455,42.103143ZM-70.924135,42.736008L-70.959691,42.753839L-71.031628,42.718044L-70.976378,42.694428ZM-70.753512,41.933246L-70.758704,41.947519L-70.829818,41.927709L-70.77027,41.825794L-70.717526,41.801519ZM-72.192683,42.091557L-72.270099,42.09253L-72.270672,42.031618L-72.198842,42.031025ZM-70.00435,41.881053L-70.007071,41.880756L-70.004529,41.800876L-69.981684,41.795174L-69.95669,41.879998L-70.004565,41.879833ZM-69.949994,41.812297L-69.946986,41.811819L-69.949994,41.812297ZM-69.939753,41.810632L-69.938428,41.810418L-69.939753,41.810632ZM-69.942439,41.811061L-69.940935,41.81083L-69.942439,41.811061ZM-69.955222,41.814291L-69.953074,41.812808L-69.955222,41.814291ZM-71.025828,42.444716L-71.053364,42.47593L-71.078142,42.474035L-71.082117,42.443942ZM-70.745635,42.599583L-70.800814,42.595347L-70.814528,42.593419L-70.810088,42.584223L-70.793294,42.567281L-70.715413,42.575587ZM-71.074275,42.390578L-71.072735,42.37334L-71.14367,42.365083L-71.167518,42.360089L-71.157026,42.330392L-71.164689,42.303842L-71.191258,42.282994L-71.188214,42.280456L-71.144565,42.24532ZM-71.01197,42.395769L-71.000691,42.364654L-71.000082,42.377773L-70.994246,42.393297ZM-71.113162,42.258834L-71.144529,42.245155L-71.130743,42.227916ZM-71.010251,42.305226L-71.009249,42.305506L-71.010251,42.305226ZM-70.967247,42.357073L-70.968822,42.35587L-70.967247,42.357073ZM-71.069047,42.393891L-71.071088,42.389853L-71.069047,42.393891ZM-71.082475,42.268689L-71.079396,42.269513L-71.082475,42.268689ZM-71.542421,42.702816L-71.651848,42.704827L-71.657936,42.649947L-71.537122,42.66351ZM-71.11975,42.500305L-71.13547,42.530002L-71.170024,42.515549L-71.204292,42.465844L-71.189647,42.449842L-71.112052,42.473821ZM-71.691416,42.163115L-71.723535,42.191495L-71.829596,42.144872L-71.797191,42.099188L-71.696679,42.095331L-71.679957,42.103407ZM-71.396721,42.341054L-71.483303,42.353135L-71.486812,42.330194L-71.497053,42.289833L-71.419315,42.257284L-71.390383,42.271919L-71.377671,42.314686ZM-72.211088,42.251253L-72.221222,42.245254L-72.26394,42.183831L-72.141873,42.161006L-72.147208,42.181475ZM-71.011612,42.501656L-70.989161,42.459746L-70.939747,42.455214L-70.933946,42.456236L-70.921413,42.465745L-70.934125,42.490845L-70.949952,42.494767L-70.986941,42.511792ZM-72.857663,42.673975L-72.95556,42.654512L-72.951048,42.641015L-72.954593,42.628671L-72.833421,42.611185L-72.736884,42.627023L-72.73513,42.633104L-72.772656,42.658335ZM-72.515988,42.160825L-72.524296,42.218737L-72.546317,42.216479L-72.59344,42.211568L-72.627349,42.162044L-72.621477,42.123777ZM-70.903617,42.659522L-70.918943,42.622771L-70.814528,42.593419L-70.800814,42.595347L-70.816927,42.641311L-70.859825,42.65733ZM-70.692819,41.983743L-70.753512,41.933246L-70.717526,41.801519L-70.632555,41.762921L-70.537737,41.810517ZM-70.608886,42.013209L-70.612825,42.013226L-70.608886,42.013209ZM-72.00738,42.421034L-72.099692,42.484533L-72.100945,42.483692L-72.205144,42.417688L-72.123683,42.363946L-72.112475,42.356431L-72.035095,42.403927ZM-71.635807,42.476903L-71.656754,42.430972L-71.660621,42.418249L-71.60426,42.397714L-71.559107,42.411953L-71.548902,42.44732ZM-71.441444,42.134835L-71.478541,42.131391L-71.501422,42.116674L-71.499703,42.103489L-71.49827,42.064892L-71.49827,42.01728L-71.45813,42.017857L-71.45591,42.034898ZM-71.457701,42.700476L-71.542421,42.702816L-71.537122,42.66351L-71.49648,42.649815ZM-71.441444,42.134835L-71.45591,42.034898L-71.359266,42.08953L-71.380178,42.13294ZM-71.858672,42.629033L-71.928031,42.602022L-71.979701,42.532326L-71.919831,42.491455L-71.842022,42.514692L-71.837796,42.543797ZM-71.702229,42.533908L-71.762959,42.563936L-71.837796,42.543797L-71.842022,42.514692L-71.830026,42.492196L-71.728405,42.475139ZM-71.025828,42.444716L-71.028227,42.424215L-71.033168,42.414211L-71.018022,42.403334L-71.01197,42.395769L-70.994246,42.393297L-70.982751,42.390809L-70.980424,42.391748L-71.010108,42.438223ZM-71.285073,42.082394L-71.359266,42.08953L-71.45591,42.034898L-71.45813,42.017857L-71.381324,42.018945L-71.289084,42.04505ZM-71.035102,42.135643L-71.056515,42.15382L-71.061313,42.103176L-71.021853,42.11875ZM-72.355392,42.340692L-72.375015,42.420836L-72.48369,42.407487L-72.472303,42.351487ZM-71.075134,42.531041L-71.100737,42.502249L-71.078142,42.474035L-71.053364,42.47593L-71.035854,42.505199ZM-70.884317,42.153722L-70.890297,42.171751L-70.924887,42.157594L-70.940749,42.151381L-70.915899,42.100127L-70.9024,42.085905L-70.887539,42.087965ZM-71.29245,41.774886L-71.300721,41.903664L-71.338784,41.898605L-71.316369,41.775562ZM-72.046088,42.601857L-72.116629,42.626611L-72.138937,42.623957L-72.082039,42.495624L-72.001364,42.546615ZM-72.221222,42.245254L-72.335985,42.220171L-72.395497,42.185743L-72.395246,42.18482L-72.389015,42.152354L-72.274468,42.143751L-72.26394,42.183831ZM-71.178475,42.057377L-71.23881,42.106406L-71.280275,42.088509L-71.285073,42.082394L-71.289084,42.04505L-71.288296,42.014462ZM-72.111078,42.717236L-72.283026,42.721604L-72.271961,42.674668L-72.224946,42.638938L-72.15437,42.623842L-72.138937,42.623957L-72.116629,42.626611ZM-71.194158,42.386046L-71.217075,42.366583L-71.167518,42.360089L-71.14367,42.365083L-71.154376,42.375103ZM-71.069584,42.049714L-71.08047,42.095546L-71.138657,42.07277L-71.168699,42.061168L-71.158709,42.012616L-71.100844,41.993186L-71.087166,41.990846L-71.054724,41.985061ZM-71.328758,42.331661L-71.377671,42.314686L-71.390383,42.271919L-71.332446,42.247726L-71.308455,42.270733L-71.327362,42.31373ZM-71.00198,42.126529L-71.021853,42.11875L-71.061313,42.103176L-71.08047,42.095546L-71.069584,42.049714L-70.987156,42.046582L-70.975232,42.071188L-70.976521,42.087207ZM-72.362303,42.595232L-72.466109,42.576741L-72.459628,42.516439L-72.4409,42.510391L-72.368462,42.502497L-72.356789,42.548708ZM-71.388378,42.54996L-71.417632,42.653787L-71.493544,42.617415L-71.49802,42.576873L-71.428518,42.528816L-71.399514,42.534024ZM-71.03546,42.570264L-71.05877,42.609092L-71.076173,42.604148L-71.135398,42.599088L-71.136473,42.552383L-71.070981,42.555893ZM-70.656259,41.461017L-70.615117,41.413635L-70.600257,41.429687ZM-71.38494,42.504474L-71.399514,42.534024L-71.428518,42.528816L-71.473528,42.500189L-71.498557,42.463784L-71.464325,42.450336L-71.43038,42.436954ZM-71.022319,42.641641L-71.05877,42.609092L-71.03546,42.570264L-71.034851,42.565501L-71.002803,42.563375L-70.964812,42.599583L-70.976055,42.621106ZM-73.16156,42.24761L-73.16088,42.286603L-73.243989,42.25707L-73.256772,42.241678L-73.162097,42.196999ZM-70.915935,42.225823L-70.924887,42.157594L-70.890297,42.171751L-70.838877,42.194807L-70.826989,42.200806L-70.844678,42.260333ZM-71.135398,42.599088L-71.164868,42.598034L-71.211131,42.573329L-71.205008,42.544505L-71.170024,42.515549L-71.13547,42.530002L-71.136473,42.552383ZM-73.338914,42.418578L-73.383673,42.4255L-73.410851,42.35175L-73.340955,42.351882L-73.330786,42.351997L-73.295337,42.411871ZM-71.560969,42.15832L-71.571604,42.142383L-71.499703,42.103489L-71.501422,42.116674ZM-71.797191,42.099188L-71.830062,42.092793L-71.804567,42.023559L-71.680852,42.011545L-71.696679,42.095331ZM-70.915899,42.100127L-70.940749,42.151381L-70.981283,42.135527L-71.00198,42.126529L-70.976521,42.087207ZM-70.965349,42.671882L-70.976055,42.621106L-70.964812,42.599583L-70.931117,42.612438L-70.918943,42.622771L-70.903617,42.659522L-70.903617,42.659621ZM-70.712334,41.409285L-70.765436,41.35129L-70.765329,41.350845L-70.782122,41.330739L-70.800098,41.314011L-70.650996,41.347087ZM-70.766081,41.3519L-70.765651,41.351488L-70.766081,41.3519ZM-72.705983,42.080812L-72.837217,42.10222L-72.834961,42.03709L-72.714576,42.036925ZM-70.262342,41.707366L-70.273693,41.649404L-70.27398,41.648564L-70.274302,41.647624L-70.180415,41.707382L-70.212892,41.724192ZM-70.192482,41.6483L-70.195955,41.648218L-70.192482,41.6483ZM-71.238345,42.182793L-71.194445,42.149931L-71.178546,42.165868L-71.154842,42.19695ZM-71.272684,42.459713L-71.289692,42.46619L-71.366356,42.412728L-71.334559,42.396116L-71.282817,42.399741L-71.267241,42.424445ZM-70.975232,42.071188L-70.987156,42.046582L-70.9796,42.011001L-70.899177,41.996334L-70.896885,42.019192L-70.908093,42.061678ZM-70.987263,41.905823L-71.007458,41.838501L-71.03657,41.816532L-70.921771,41.791251L-70.896384,41.794333ZM-72.621477,42.123777L-72.627349,42.162044L-72.684892,42.162951L-72.694846,42.105895L-72.588534,42.093238ZM-72.112475,42.356431L-72.123683,42.363946L-72.213989,42.294267L-72.210802,42.294481L-72.134783,42.281165L-72.041182,42.308703ZM-71.188214,42.280456L-71.23172,42.259262L-71.145926,42.209228L-71.130743,42.227916L-71.144529,42.245155L-71.144565,42.24532ZM-71.919831,42.491455L-71.96545,42.446612L-71.887748,42.394962L-71.831745,42.431829L-71.830026,42.492196L-71.842022,42.514692ZM-71.664596,42.611613L-71.775742,42.644228L-71.775312,42.63668L-71.762959,42.563936L-71.702229,42.533908L-71.67899,42.530447ZM-70.967175,42.758289L-71.020385,42.784312L-71.058878,42.732464L-71.031628,42.718044L-70.959691,42.753839ZM-71.723535,42.191495L-71.733418,42.237986L-71.797155,42.210052L-71.831494,42.164269L-71.829596,42.144872ZM-72.138937,42.623957L-72.15437,42.623842L-72.185629,42.550356L-72.100945,42.483692L-72.099692,42.484533L-72.082039,42.495624ZM-71.417632,42.653787L-71.388378,42.54996L-71.332554,42.560771L-71.297033,42.613014L-71.38093,42.649024ZM-72.609947,42.285235L-72.59344,42.211568L-72.546317,42.216479L-72.527984,42.301468L-72.535145,42.304254ZM-72.669137,42.409728L-72.700862,42.452924L-72.75776,42.445886L-72.773551,42.401538L-72.777132,42.35826L-72.741217,42.362743L-72.672145,42.371362ZM-70.771738,41.808935L-70.896384,41.794333L-70.921771,41.791251L-70.907198,41.763548L-70.865017,41.700164L-70.799059,41.710118L-70.778792,41.761323ZM-71.538769,42.543038L-71.619944,42.552515L-71.635878,42.524037L-71.635807,42.476903L-71.548902,42.44732L-71.543388,42.466454L-71.529853,42.519851ZM-71.300721,41.903664L-71.29245,41.774886L-71.282925,41.77487L-71.282817,41.774886L-71.282316,41.774919L-71.280239,41.7751L-71.193478,41.816532L-71.186782,41.879356L-71.193908,41.910767L-71.208159,41.908855ZM-71.660478,42.635098L-71.664596,42.611613L-71.67899,42.530447L-71.635878,42.524037L-71.619944,42.552515L-71.609202,42.581224ZM-72.736884,42.627023L-72.833421,42.611185L-72.84846,42.559074L-72.745442,42.564282L-72.719339,42.585492ZM-71.419315,42.257284L-71.497053,42.289833L-71.52219,42.266464L-71.467118,42.230784L-71.420067,42.238134ZM-72.927201,42.739122L-73.023021,42.74115L-72.949652,42.705123ZM-71.993773,42.319366L-72.035095,42.403927L-72.112475,42.356431L-72.041182,42.308703L-71.989405,42.310203ZM-70.843353,42.094771L-70.887539,42.087965L-70.9024,42.085905L-70.908093,42.061678L-70.896885,42.019192L-70.83347,42.019554ZM-71.402307,42.178805L-71.478111,42.156787L-71.478541,42.131391L-71.441444,42.134835L-71.380178,42.13294L-71.37563,42.135461ZM-72.134783,42.281165L-72.210802,42.294481L-72.211088,42.251253L-72.147208,42.181475L-72.111257,42.238596ZM-72.271352,42.547241L-72.356789,42.548708L-72.368462,42.502497L-72.375015,42.420836L-72.355392,42.340692L-72.356001,42.303298L-72.31425,42.343691L-72.244855,42.513456ZM-69.993142,41.713628L-70.037973,41.668884L-70.037579,41.66839L-70.037579,41.668225ZM-69.92808,41.722478L-69.933022,41.722973L-69.92808,41.722478ZM-70.037543,41.66806L-70.037472,41.667796L-70.037543,41.66806ZM-71.267241,42.424445L-71.282817,42.399741L-71.260366,42.353662L-71.217075,42.366583L-71.194158,42.386046L-71.211274,42.406086ZM-70.976485,42.16834L-71.021996,42.169015L-71.035102,42.135643L-71.021853,42.11875L-71.00198,42.126529L-70.981283,42.135527ZM-72.609947,42.285235L-72.613134,42.286274L-72.667776,42.225461L-72.686861,42.183403L-72.684892,42.162951L-72.627349,42.162044L-72.59344,42.211568ZM-73.17155,42.62872L-73.262,42.631341L-73.258276,42.588574L-73.201843,42.579197L-73.174272,42.598512ZM-73.289142,42.172295L-73.297091,42.15921L-73.296339,42.047011L-73.172123,42.043402L-73.186303,42.153573ZM-72.781035,42.199751L-72.813405,42.245007L-72.868477,42.223664L-72.812868,42.155864ZM-71.188859,42.696273L-71.238166,42.669427L-71.256177,42.657149L-71.164868,42.598034L-71.135398,42.599088L-71.076173,42.604148L-71.134539,42.676827ZM-72.019877,42.183765L-72.030368,42.245204L-72.072836,42.232102L-72.072442,42.169296L-72.029437,42.174437ZM-72.598632,42.730882L-72.674723,42.732959L-72.620904,42.646882L-72.585741,42.650919ZM-72.581086,42.422583L-72.669137,42.409728L-72.672145,42.371362L-72.633974,42.351157ZM-71.473528,42.500189L-71.529853,42.519851L-71.543388,42.466454L-71.498557,42.463784ZM-71.81778,42.40396L-71.831745,42.431829L-71.887748,42.394962L-71.918757,42.347993L-71.875394,42.286554L-71.80206,42.331347ZM-71.115597,42.741117L-71.182413,42.794332L-71.255138,42.736486L-71.238166,42.669427L-71.188859,42.696273L-71.134181,42.721505ZM-72.745442,42.564282L-72.84846,42.559074L-72.876855,42.541209L-72.871126,42.484055L-72.855622,42.480924L-72.763776,42.463669ZM-71.193478,41.816532L-71.280239,41.7751L-71.190506,41.744562L-71.187104,41.744447L-71.186925,41.74443L-71.153159,41.789554ZM-71.29245,41.774886L-71.316369,41.775562L-71.282925,41.77487ZM-71.282316,41.774919L-71.282817,41.774886L-71.282316,41.774919ZM-72.48455,42.156523L-72.515988,42.160825L-72.621477,42.123777L-72.588534,42.093238L-72.589394,42.072193L-72.536649,42.063738L-72.471086,42.089728ZM-71.231899,42.50637L-71.306701,42.520609L-71.317551,42.502431L-71.289692,42.46619L-71.272684,42.459713L-71.240923,42.490021ZM-72.111257,42.238596L-72.147208,42.181475L-72.141873,42.161006L-72.134998,42.161797L-72.072442,42.169296L-72.072836,42.232102ZM-71.884059,42.281263L-71.960544,42.281428L-71.939346,42.189253L-71.916966,42.190868L-71.895124,42.192434L-71.856631,42.22668ZM-73.06796,42.480116L-73.115154,42.487796L-73.169187,42.412761L-73.091449,42.384793ZM-71.687871,42.325513L-71.764427,42.312873L-71.768258,42.311274L-71.731233,42.241298L-71.674443,42.252373L-71.67011,42.278775ZM-70.147436,42.061019L-70.154275,42.077104L-70.147436,42.061019ZM-71.599319,42.225972L-71.644436,42.226631L-71.64218,42.16567L-71.592766,42.121651L-71.571604,42.142383L-71.560969,42.15832L-71.555741,42.182513ZM-71.296317,42.612668L-71.297033,42.613014L-71.332554,42.560771L-71.306701,42.520609L-71.231899,42.50637L-71.205008,42.544505L-71.211131,42.573329ZM-73.402437,42.258553L-73.431297,42.296145L-73.460158,42.21755L-73.41411,42.212738ZM-72.773551,42.401538L-72.847887,42.436493L-72.88083,42.433015L-72.885628,42.340049L-72.821103,42.338632L-72.777132,42.35826ZM-71.268745,41.987319L-71.288296,42.014462L-71.381359,41.985094L-71.381431,41.914821ZM-70.961625,42.245798L-70.963487,42.245979L-70.96807,42.221703L-70.976485,42.16834L-70.981283,42.135527L-70.940749,42.151381L-70.924887,42.157594L-70.915935,42.225823ZM-72.736741,42.284246L-72.741217,42.362743L-72.777132,42.35826L-72.821103,42.338632L-72.814407,42.256807L-72.736311,42.27655ZM-71.81778,42.40396L-71.80206,42.331347L-71.768258,42.311274L-71.764427,42.312873L-71.741904,42.386854ZM-71.960544,42.281428L-71.989405,42.310203L-72.041182,42.308703L-72.030368,42.245204L-72.019877,42.183765L-71.939346,42.189253ZM-72.496187,42.678623L-72.540803,42.655666L-72.552691,42.612207L-72.497082,42.597572L-72.490995,42.604016ZM-70.212892,41.724192L-70.180415,41.707382L-70.195955,41.648218L-70.192482,41.6483L-70.117537,41.655238L-70.133865,41.706163L-70.129282,41.752852ZM-72.4409,42.510391L-72.459628,42.516439L-72.52093,42.510226L-72.530956,42.428862L-72.489885,42.433823ZM-71.366356,42.412728L-71.43038,42.436954L-71.469446,42.402609L-71.472668,42.390034L-71.475497,42.38064L-71.483303,42.353135L-71.396721,42.341054L-71.390025,42.365248ZM-71.390025,42.365248L-71.389953,42.365347L-71.390025,42.365248ZM-71.389953,42.365347L-71.389953,42.365347L-71.389953,42.365347ZM-70.854346,42.750659L-70.872357,42.750164L-70.899069,42.742089L-70.924135,42.736008L-70.976378,42.694428L-70.948591,42.680683L-70.864408,42.709112ZM-70.79487,42.753213L-70.808656,42.75028L-70.809551,42.750082L-70.81016,42.75L-70.798272,42.733618L-70.788353,42.738776ZM-70.841205,42.730075L-70.8421,42.729333L-70.841205,42.730075ZM-70.810589,42.749967L-70.810912,42.749934L-70.810589,42.749967ZM-72.585455,42.466849L-72.656246,42.470047L-72.700862,42.452924L-72.669137,42.409728L-72.581086,42.422583ZM-70.52037,41.772546L-70.621025,41.65743L-70.618447,41.65776L-70.61526,41.658238L-70.567887,41.645548ZM-70.519404,41.792767L-70.537737,41.810517L-70.632555,41.762921L-70.62969,41.760334L-70.520263,41.774441ZM-70.618232,41.657793L-70.618375,41.657776L-70.618232,41.657793ZM-73.169187,42.412761L-73.201879,42.413766L-73.221931,42.400598L-73.236398,42.364556L-73.159949,42.304221L-73.064307,42.339736L-73.068497,42.380723L-73.091449,42.384793ZM-73.163637,42.743951L-73.306974,42.632659L-73.262,42.631341L-73.17155,42.62872L-73.16976,42.660181L-73.165893,42.711847ZM-72.636838,42.577993L-72.633043,42.645365L-72.73513,42.633104L-72.736884,42.627023L-72.719339,42.585492L-72.675439,42.553026ZM-70.800098,41.314011L-70.782122,41.330739L-70.800098,41.314011ZM-70.765651,41.351488L-70.766081,41.3519L-70.765329,41.350845L-70.765436,41.35129ZM-72.46994,42.084767L-72.471086,42.089728L-72.536649,42.063738L-72.531565,42.034585L-72.458303,42.034337ZM-71.334559,42.396116L-71.328758,42.331661L-71.327362,42.31373L-71.269963,42.328084L-71.260366,42.353662L-71.282817,42.399741ZM-72.389015,42.152354L-72.379455,42.103143L-72.366994,42.032706L-72.270672,42.031618L-72.270099,42.09253L-72.274468,42.143751ZM-73.070502,42.140175L-73.161954,42.178673L-73.186303,42.153573L-73.172123,42.043402L-73.053243,42.039825ZM-72.364774,42.609438L-72.377127,42.639284L-72.490995,42.604016L-72.497082,42.597572L-72.466109,42.576741L-72.362303,42.595232ZM-73.162097,42.196999L-73.256772,42.241678L-73.289142,42.172295L-73.186303,42.153573L-73.161954,42.178673ZM-70.615117,41.413635L-70.656259,41.461017L-70.712334,41.409285L-70.650996,41.347087L-70.60706,41.349312ZM-71.651848,42.704827L-71.772555,42.708139L-71.775742,42.644228L-71.664596,42.611613L-71.660478,42.635098L-71.657936,42.649947ZM-70.980424,42.391748L-70.982751,42.390809L-70.968822,42.35587L-70.967247,42.357073ZM-71.000082,42.377773L-71.000691,42.364654L-71.000082,42.377773ZM-73.330786,42.351997L-73.340955,42.351882L-73.365913,42.259147L-73.289178,42.257499L-73.288283,42.323552ZM-71.108614,42.735283L-71.022319,42.641641L-70.976055,42.621106L-70.965349,42.671882L-70.948591,42.680683L-70.976378,42.694428L-71.031628,42.718044L-71.058878,42.732464ZM-69.981684,41.795174L-70.004529,41.800876L-70.018816,41.78545L-69.991746,41.729054L-69.933022,41.722973L-69.92808,41.722478L-69.938428,41.810418L-69.939753,41.810632ZM-69.946986,41.811819L-69.949994,41.812297L-69.946986,41.811819ZM-69.940935,41.81083L-69.942439,41.811061L-69.940935,41.81083ZM-69.953074,41.812808L-69.955222,41.814291L-69.953074,41.812808ZM-71.609202,42.581224L-71.619944,42.552515L-71.538769,42.543038L-71.511448,42.569391ZM-71.831494,42.164269L-71.895124,42.192434L-71.916966,42.190868L-71.909232,42.091277L-71.881517,42.075901L-71.830062,42.092793L-71.797191,42.099188L-71.829596,42.144872ZM-73.182185,42.485423L-73.311736,42.504623L-73.338914,42.418578L-73.295337,42.411871L-73.221931,42.400598L-73.201879,42.413766ZM-72.736311,42.27655L-72.814407,42.256807L-72.813405,42.245007L-72.781035,42.199751L-72.686861,42.183403L-72.667776,42.225461ZM-71.928031,42.602022L-71.986075,42.630022L-72.046088,42.601857L-72.001364,42.546615L-71.979701,42.532326ZM-70.99976,41.92967L-71.054187,41.982721L-71.054724,41.985061L-71.087166,41.990846L-71.063533,41.903483L-71.013044,41.892276L-70.993135,41.906449ZM-70.64054,42.686385L-70.619306,42.626446L-70.64054,42.686385ZM-70.618877,42.626281L-70.618339,42.6261L-70.618877,42.626281ZM-72.821103,42.338632L-72.885628,42.340049L-72.885199,42.3326L-72.912305,42.23914L-72.872201,42.216446L-72.868477,42.223664L-72.813405,42.245007L-72.814407,42.256807ZM-71.881517,42.075901L-71.909232,42.091277L-71.992842,42.072572L-71.993129,42.026938L-71.883952,42.0244ZM-71.157026,42.330392L-71.164689,42.303842L-71.157026,42.330392ZM-70.96918,42.822464L-70.999617,42.810549L-71.020385,42.784312L-70.967175,42.758289L-70.917403,42.787476L-70.933015,42.815213L-70.940284,42.822563ZM-71.428518,42.528816L-71.49802,42.576873L-71.511448,42.569391L-71.538769,42.543038L-71.529853,42.519851L-71.473528,42.500189ZM-70.600257,41.429687L-70.615117,41.413635L-70.572578,41.414608ZM-70.54916,41.416272L-70.548551,41.416569L-70.54916,41.416272ZM-70.803858,42.111482L-70.843353,42.094771L-70.83347,42.019554L-70.807259,42.01288L-70.799346,42.013605L-70.769482,42.022076L-70.749717,42.096979L-70.776966,42.116641L-70.777145,42.116756ZM-71.132426,42.415233L-71.134646,42.404273L-71.072735,42.37334L-71.074275,42.390578L-71.092429,42.399098ZM-71.887748,42.394962L-71.96545,42.446612L-72.00738,42.421034L-72.035095,42.403927L-71.993773,42.319366L-71.918757,42.347993ZM-70.799059,41.710118L-70.865017,41.700164L-70.858213,41.681162L-70.843174,41.628474L-70.766081,41.67696ZM-70.763037,41.677339L-70.765293,41.677042L-70.763037,41.677339ZM-71.076674,41.687474L-71.138334,41.603688L-71.022211,41.50441ZM-70.999617,42.810549L-71.054008,42.833292L-71.182413,42.794332L-71.115597,42.741117L-71.108614,42.735283L-71.058878,42.732464L-71.020385,42.784312ZM-72.791097,42.736057L-72.864287,42.737738L-72.857663,42.673975L-72.772656,42.658335ZM-71.55012,42.266036L-71.599319,42.225972L-71.555741,42.182513L-71.502639,42.191429L-71.467118,42.230784L-71.52219,42.266464ZM-72.868477,42.223664L-72.872201,42.216446L-72.895654,42.123925L-72.853903,42.115009L-72.812868,42.155864ZM-71.004916,42.863352L-71.054008,42.833292L-70.999617,42.810549L-70.96918,42.822464ZM-71.64218,42.16567L-71.691416,42.163115L-71.679957,42.103407L-71.592623,42.114284L-71.592766,42.121651ZM-73.001859,42.251022L-73.007875,42.238414L-73.034909,42.143668L-72.981914,42.136697L-72.895654,42.123925L-72.872201,42.216446L-72.912305,42.23914ZM-72.736741,42.284246L-72.736311,42.27655L-72.667776,42.225461L-72.613134,42.286274L-72.614709,42.290212ZM-71.108614,42.735283L-71.115597,42.741117L-71.134181,42.721505L-71.134539,42.676827L-71.076173,42.604148L-71.05877,42.609092L-71.022319,42.641641ZM-71.100844,41.993186L-71.158709,42.012616L-71.259292,41.974217L-71.208159,41.908855L-71.193908,41.910767ZM-72.366994,42.032706L-72.379455,42.103143L-72.46994,42.084767L-72.458303,42.034337ZM-72.530956,42.428862L-72.52093,42.510226L-72.556773,42.506485L-72.585455,42.466849L-72.581086,42.422583L-72.544205,42.427165ZM-71.420067,42.238134L-71.467118,42.230784L-71.502639,42.191429L-71.478111,42.156787L-71.402307,42.178805L-71.384761,42.192022ZM-72.585741,42.650919L-72.620904,42.646882L-72.633043,42.645365L-72.636838,42.577993L-72.57815,42.578504L-72.552691,42.612207L-72.540803,42.655666ZM-71.674443,42.252373L-71.731233,42.241298L-71.733418,42.237986L-71.723535,42.191495L-71.691416,42.163115L-71.64218,42.16567L-71.644436,42.226631ZM-71.49827,42.064892L-71.563905,42.064068L-71.563655,42.014281L-71.49827,42.01728ZM-71.085626,42.4447L-71.119392,42.453451L-71.1499,42.43585L-71.132426,42.415233L-71.092429,42.399098L-71.07338,42.408426L-71.073559,42.409399L-71.076173,42.41314ZM-71.071983,42.407454L-71.071625,42.406366L-71.071983,42.407454ZM-71.368898,42.661763L-71.38093,42.649024L-71.297033,42.613014L-71.296317,42.612668L-71.275155,42.656226ZM-70.922344,42.591524L-70.911495,42.549614L-70.793294,42.567281L-70.810088,42.584223ZM-70.749717,42.096979L-70.769482,42.022076L-70.711331,42.002415L-70.678997,42.059124ZM-70.648525,42.072341L-70.656689,42.06888L-70.612825,42.013226L-70.608886,42.013209ZM-70.657441,42.068567L-70.665032,42.065238L-70.657441,42.068567ZM-70.672086,42.062156L-70.678603,42.059305L-70.672086,42.062156ZM-70.665104,42.065189L-70.667933,42.063969L-70.665104,42.065189ZM-70.669651,42.063211L-70.671871,42.062239L-70.669651,42.063211ZM-70.656761,42.068864L-70.657083,42.068716L-70.656761,42.068864ZM-70.73543,42.649106L-70.737256,42.646173L-70.737327,42.646058L-70.737399,42.645942L-70.739118,42.643141L-70.745635,42.599583L-70.715413,42.575587ZM-70.618339,42.6261L-70.618877,42.626281L-70.619306,42.626446L-70.64054,42.686385ZM-70.738187,42.644673L-70.738437,42.644261L-70.738473,42.644162L-70.738939,42.64347ZM-70.732243,42.654314L-70.732458,42.653968L-70.733031,42.653045ZM-70.726478,42.663758L-70.728017,42.661253L-70.726478,42.663758ZM-72.953268,42.34384L-73.000284,42.312626L-73.001859,42.251022L-72.912305,42.23914L-72.885199,42.3326ZM-71.112052,42.473821L-71.189647,42.449842L-71.18227,42.436295L-71.1499,42.43585L-71.119392,42.453451ZM-71.563655,42.014281L-71.563905,42.064068L-71.591943,42.063705L-71.591119,42.013654ZM-70.9796,42.011001L-71.054187,41.982721L-70.99976,41.92967L-70.908523,41.966389L-70.899177,41.996334ZM-73.070502,42.140175L-73.053243,42.039825L-72.97905,42.038243L-72.981914,42.136697L-73.034909,42.143668Z"></path>
</svg>
